<svg width="21" height="18" viewBox="0 0 21 18" fill="none" xmlns="http://www.w3.org/2000/svg">
<path fill-rule="evenodd" clip-rule="evenodd" d="M16.3778 3.2364C16.4179 3.30633 16.4881 3.35627 16.5784 3.35627C18.9856 3.35627 20.9515 5.3141 20.9515 7.71143V13.6448C20.9515 16.0422 18.9856 18 16.5784 18H5.26429C2.847 18 0.891113 16.0422 0.891113 13.6448V7.71143C0.891113 5.3141 2.847 3.35627 5.26429 3.35627C5.34453 3.35627 5.42477 3.31632 5.45486 3.2364L5.51504 3.11654C5.54961 3.044 5.58508 2.9695 5.6211 2.89387C5.87771 2.355 6.1616 1.75881 6.33752 1.40844C6.79891 0.509434 7.58126 0.0099889 8.55419 0H13.2784C14.2514 0.0099889 15.0437 0.509434 15.5051 1.40844C15.6631 1.72308 15.9038 2.22992 16.1358 2.71842C16.1836 2.81923 16.2311 2.91925 16.2775 3.01665L16.3778 3.2364ZM15.6456 7.0722C15.6456 7.57164 16.0468 7.9712 16.5484 7.9712C17.0499 7.9712 17.4611 7.57164 17.4611 7.0722C17.4611 6.57275 17.0499 6.16321 16.5484 6.16321C16.0468 6.16321 15.6456 6.57275 15.6456 7.0722ZM9.18634 8.62045C9.65776 8.15097 10.2696 7.90125 10.9216 7.90125C11.5735 7.90125 12.1854 8.15097 12.6468 8.61046C13.1081 9.06995 13.3589 9.67927 13.3589 10.3285C13.3489 11.6671 12.2656 12.7559 10.9216 12.7559C10.2696 12.7559 9.65776 12.5061 9.19637 12.0466C8.73498 11.5871 8.48422 10.9778 8.48422 10.3285V10.3186C8.47419 9.68926 8.72495 9.07994 9.18634 8.62045ZM13.6998 13.1054C12.9877 13.8146 12.0047 14.2541 10.9215 14.2541C9.86828 14.2541 8.88532 13.8446 8.13305 13.1054C7.39082 12.3562 6.97958 11.3773 6.97958 10.3285C6.96955 9.28962 7.38079 8.31071 8.12302 7.56154C8.87529 6.81238 9.86828 6.40283 10.9215 6.40283C11.9746 6.40283 12.9676 6.81238 13.7099 7.55156C14.4521 8.30072 14.8633 9.28962 14.8633 10.3285C14.8533 11.4173 14.412 12.3962 13.6998 13.1054Z" fill="#130F26"/>
</svg>
